<svg width="23" height="24" viewBox="0 0 23 24" fill="none" xmlns="http://www.w3.org/2000/svg">
<path d="M12.0556 2.64485C11.9848 2.64342 11.9142 2.64271 11.8437 2.64271C6.09691 2.64271 1.42163 7.31658 1.42163 13.0626C1.42163 18.8091 6.09691 23.4827 11.8437 23.4827C17.5905 23.4825 22.2648 18.8088 22.2648 13.0624V12.7224V12.379L22.2324 12.3665C22.0555 11.1017 20.9681 10.1279 19.6545 10.1279C18.2162 10.1279 17.0491 11.2927 17.0491 12.7317C17.0491 12.8191 17.0542 12.9058 17.0629 12.9894V13.0624C17.0629 15.9398 14.7215 18.2814 11.8442 18.2814C8.967 18.2814 6.62513 15.9397 6.62513 13.0624C6.62513 10.1866 8.96704 7.84382 11.8442 7.84382C11.9148 7.84382 11.9854 7.84526 12.0561 7.84814V8.25056V8.26441V8.75056H12.1145C12.3326 9.64073 13.1362 10.3017 14.094 10.3017C14.738 10.3017 15.3038 9.99976 15.6737 9.54217L18.3168 6.89197C18.722 6.52234 18.9861 5.99081 18.9861 5.38973C18.9861 4.71302 18.6556 4.11769 18.153 3.74897L15.6028 1.19529C15.5564 1.14207 15.5089 1.095 15.4619 1.05271L15.4267 1.01772L15.2804 0.872212H15.2304C14.9089 0.65292 14.5198 0.519592 14.0938 0.519592C13.0988 0.519592 12.2826 1.23189 12.1011 2.16731L12.0556 2.20201V2.44965V2.64485Z" fill="white" stroke="#39BD01"/>
</svg>
